<?xml version="1.0" encoding="UTF-8" standalone="no"?><svg xmlns="http://www.w3.org/2000/svg" xmlns:xlink="http://www.w3.org/1999/xlink" fill="#ffffff" height="512" preserveAspectRatio="xMidYMid meet" version="1" viewBox="19.0 19.0 512.0 512.0" width="512" zoomAndPan="magnify"><g><g><g id="change1_9"><path d="M307,531h-64c-4.418,0-8-3.582-8-8v-19.439c-33.471-5.835-65.475-19.099-93.322-38.675l-13.762,13.762 c-3.125,3.125-8.19,3.123-11.313,0l-45.25-45.25c-1.5-1.501-2.343-3.535-2.343-5.657s0.843-4.156,2.343-5.657l13.762-13.761 C65.538,380.475,52.274,348.47,46.44,315H27c-4.418,0-8-3.582-8-8v-64c0-4.418,3.582-8,8-8h19.44 c5.834-33.47,19.098-65.475,38.674-93.322l-13.762-13.762c-3.125-3.124-3.125-8.189,0-11.313l45.25-45.25 c3.124-3.124,8.189-3.124,11.313,0l13.762,13.762C169.525,65.538,201.53,52.274,235,46.44V27c0-4.418,3.582-8,8-8h64 c4.418,0,8,3.582,8,8v19.44c33.47,5.834,65.475,19.098,93.322,38.674l13.761-13.762c1.501-1.5,3.535-2.343,5.657-2.343 s4.156,0.843,5.657,2.343l45.25,45.25c3.124,3.124,3.124,8.189,0,11.313l-13.762,13.762 c19.576,27.847,32.84,59.851,38.675,93.322H523c4.418,0,8,3.582,8,8v64c0,4.418-3.582,8-8,8h-19.439 c-5.835,33.471-19.099,65.475-38.675,93.322l13.762,13.761c3.124,3.125,3.124,8.189,0,11.314l-45.25,45.25 c-3.125,3.122-8.189,3.124-11.314,0l-13.761-13.762c-27.848,19.576-59.852,32.84-93.322,38.675V523 C315,527.418,311.418,531,307,531z M251,515h48v-18.27c0-3.98,2.927-7.355,6.867-7.919c35.591-5.094,69.646-19.206,98.486-40.813 c3.183-2.387,7.639-2.068,10.454,0.745l12.933,12.934l33.937-33.937l-12.934-12.933c-2.813-2.814-3.132-7.27-0.745-10.454 c21.607-28.84,35.72-62.896,40.813-98.486c0.563-3.94,3.938-6.867,7.919-6.867H515v-48h-18.27c-3.98,0-7.355-2.926-7.919-6.867 c-5.094-35.591-19.206-69.647-40.813-98.486c-2.386-3.185-2.068-7.64,0.745-10.454l12.934-12.934L427.74,88.324l-12.933,12.933 c-2.814,2.815-7.269,3.132-10.454,0.746c-28.84-21.607-62.896-35.721-98.486-40.813C301.927,60.625,299,57.25,299,53.27V35h-48 v18.27c0,3.98-2.926,7.355-6.867,7.919c-35.59,5.092-69.646,19.206-98.486,40.813c-3.185,2.387-7.64,2.068-10.454-0.746 L122.26,88.323L88.323,122.26l12.934,12.934c2.814,2.814,3.132,7.269,0.746,10.454c-21.607,28.84-35.721,62.896-40.813,98.486 C60.625,248.074,57.25,251,53.27,251H35v48h18.27c3.98,0,7.355,2.927,7.919,6.867c5.092,35.59,19.206,69.646,40.813,98.486 c2.386,3.186,2.068,7.64-0.746,10.454L88.324,427.74l33.936,33.937l12.934-12.934c2.813-2.813,7.268-3.132,10.454-0.745 c28.839,21.607,62.895,35.72,98.486,40.813c3.94,0.563,6.867,3.938,6.867,7.919V515z"/></g><g id="change1_7"><path d="M275,459c-101.458,0-184-82.542-184-184S173.542,91,275,91s184,82.542,184,184S376.458,459,275,459z M275,107 c-92.636,0-168,75.364-168,168s75.364,168,168,168s168-75.364,168-168S367.636,107,275,107z"/></g><g id="change1_3"><path d="M303,267c-17.645,0-32-14.355-32-32s14.355-32,32-32s32,14.355,32,32S320.645,267,303,267z M303,219 c-8.822,0-16,7.178-16,16s7.178,16,16,16s16-7.178,16-16S311.822,219,303,219z"/></g><g id="change1_13"><path d="M303,403c-4.418,0-8-3.582-8-8V259c0-4.418,3.582-8,8-8s8,3.582,8,8v136C311,399.418,307.418,403,303,403z"/></g><g id="change1_8"><path d="M303,219c-4.418,0-8-3.582-8-8v-32c0-4.418,3.582-8,8-8s8,3.582,8,8v32C311,215.418,307.418,219,303,219z"/></g><g id="change1_1"><path d="M359,355c-17.645,0-32-14.355-32-32s14.355-32,32-32s32,14.355,32,32S376.645,355,359,355z M359,307 c-8.822,0-16,7.178-16,16s7.178,16,16,16s16-7.178,16-16S367.822,307,359,307z"/></g><g id="change1_6"><path d="M359,403c-4.418,0-8-3.582-8-8v-48c0-4.418,3.582-8,8-8s8,3.582,8,8v48C367,399.418,363.418,403,359,403z"/></g><g id="change1_2"><path d="M359,307c-4.418,0-8-3.582-8-8V179c0-4.418,3.582-8,8-8s8,3.582,8,8v120C367,303.418,363.418,307,359,307z"/></g><g id="change1_14"><path d="M247,355c-17.645,0-32-14.355-32-32s14.355-32,32-32s32,14.355,32,32S264.645,355,247,355z M247,307 c-8.822,0-16,7.178-16,16s7.178,16,16,16s16-7.178,16-16S255.822,307,247,307z"/></g><g id="change1_5"><path d="M247,403c-4.418,0-8-3.582-8-8v-48c0-4.418,3.582-8,8-8s8,3.582,8,8v48C255,399.418,251.418,403,247,403z"/></g><g id="change1_12"><path d="M247,307c-4.418,0-8-3.582-8-8V179c0-4.418,3.582-8,8-8s8,3.582,8,8v120C255,303.418,251.418,307,247,307z"/></g><g id="change1_4"><path d="M191,283c-17.645,0-32-14.355-32-32s14.355-32,32-32s32,14.355,32,32S208.645,283,191,283z M191,235 c-8.822,0-16,7.178-16,16s7.178,16,16,16s16-7.178,16-16S199.822,235,191,235z"/></g><g id="change1_10"><path d="M191,403c-4.418,0-8-3.582-8-8V275c0-4.418,3.582-8,8-8s8,3.582,8,8v120C199,399.418,195.418,403,191,403z"/></g><g id="change1_11"><path d="M191,235c-4.418,0-8-3.582-8-8v-48c0-4.418,3.582-8,8-8s8,3.582,8,8v48C199,231.418,195.418,235,191,235z"/></g></g></g></svg>