<?xml version="1.0" encoding="UTF-8"?><svg xmlns="http://www.w3.org/2000/svg" xmlns:xlink="http://www.w3.org/1999/xlink" height="512.3" preserveAspectRatio="xMidYMid meet" version="1.0" viewBox="-11.8 -2.9 344.0 512.3" width="344.0" zoomAndPan="magnify"><g id="change1_1"><path d="M323.2,294.1c2.3-2.5,3.8-5.9,3.7-10c-0.3-90.3-2.6-180.4-0.5-270.8c0.2-11-11.6-16.2-20.5-11.8 c-33.7,16.5-70,28.4-104.9,42.2C168.2,56.8,135.6,70,103.2,84c-4.6-4.4-13.7-2.8-13.8,5.5c-0.6,52.1,2.2,104.2,5.9,156.1 c3.2,44.9,5.7,91.1,12.7,135.9c-34,1.9-72.2,9.3-95,34.6c-24.8,27.4-12.1,66.8,21.2,79.8c34.5,13.5,79.4-7.4,100.6-35.5 c10.1-13.3,15.7-30.5,8.9-46.6c-1.4-3.2-3.1-6.2-5.2-8.8c1.9-2.6,3-5.7,2.8-8.8c-4.7-51.1-14.4-102-20.2-153 c-2.3-20.2-4.4-40.5-6.3-60.7c13.5-4.6,26.3-11.6,39.3-17.3c16.3-7.2,32.7-13.9,49.3-20.4c15.5-6.1,31.1-11.8,46.9-17.1 c15.1-5.1,31-8.7,45.7-14.8c-1.2,48.7-1.7,97.4-0.3,145.9c-28.3-9-60.1-2.4-80.6,22.4c-26.9,32.5-20.9,82.1,21.6,97.2 c38.2,13.6,86.9-11.5,93.6-52.7C332.2,313,329.2,302.4,323.2,294.1z M39.5,452.9c0-0.3,0.1-0.6,0.1-0.9c0.9,7,3.9,13.6,9,18.5 C42.3,468.7,38.3,463.5,39.5,452.9z M121.5,443.2c1.8-3.6,3.4-7.3,4.4-11C125.3,436.1,123.7,439.7,121.5,443.2z M287.7,84.4 c-16.8,2.8-33.7,10.5-49.6,16.4c-16,6-31.9,12.4-47.7,19.2c-25.6,11-54.3,22.6-78,38.7c-2-20.8-3.9-41.7-6-62.5 c35.1-10.8,69.8-22.5,104.5-34.3c29-9.9,58-21.4,87.4-30.3c-0.7,18-1.3,36.1-1.8,54.1C293.9,84.4,290.8,83.8,287.7,84.4z M296.4,334.9c-2.3,3.2-5.4,6.1-9,8.6c6.4-6.5,11.2-14.2,13.1-22.2c0.6-0.9,1.1-1.9,1.6-2.8C302.3,323.6,300.5,329.3,296.4,334.9z" fill="#FFF"/></g></svg>