<?xml version="1.0" encoding="UTF-8" standalone="no"?><svg xmlns="http://www.w3.org/2000/svg" xmlns:xlink="http://www.w3.org/1999/xlink" enable-background="new 0 0 128 128" fill="#ffffff" height="128" preserveAspectRatio="xMidYMid meet" version="1" viewBox="25.0 0.0 78.0 128.0" width="78" zoomAndPan="magnify">
 <g id="change1_1"><path d="m25 121v1c0 3.3 2.7 6 6 6h66c3.3 0 6-2.7 6-6v-1c0-3.3-2.7-6-6-6v-18.2c0-6.2-4-13.9-8.9-17.5l-19.1-14.1v-2.4l19.1-14c5-3.7 8.9-11.4 8.9-17.5v-18.3c3.3 0 6-2.7 6-6v-1c0-3.3-2.7-6-6-6h-66c-3.3 0-6 2.7-6 6v1c0 3.3 2.7 6 6 6v18.2c0 6.2 3.9 13.9 8.9 17.5l19.1 14v2.4l-19.1 14c-5 3.7-8.9 11.4-8.9 17.5v18.4c-3.3 0-6 2.7-6 6zm10-24.2c0-4.9 3.3-11.4 7.3-14.3l19.9-14.6c0.5-0.4 0.8-1 0.8-1.6v-4.4c0-0.6-0.3-1.2-0.8-1.6l-19.9-14.7c-3.9-2.9-7.3-9.4-7.3-14.3v-18.3h58v18.2c0 4.9-3.4 11.4-7.3 14.3l-19.9 14.7c-0.5 0.4-0.8 1-0.8 1.6v4.4c0 0.6 0.3 1.2 0.8 1.6l19.9 14.6c3.9 2.9 7.3 9.5 7.3 14.3v18.3h-5v-15.7c0-4.6-2.9-10.2-6.5-13l-16.2-12c-0.7-0.5-1.7-0.5-2.4 0l-16.3 12c-3.7 2.7-6.6 8.4-6.6 12.9v15.8h-5z" fill="inherit"/></g>
 <g id="change1_2"><path d="m65.2 53.6 16.2-12c0.7-0.5 1-1.4 0.7-2.2s-1-1.4-1.9-1.4h-32.6c-0.9 0-1.6 0.6-1.9 1.4s0 1.7 0.7 2.2l16.3 12c0.4 0.3 0.8 0.4 1.2 0.4 0.6 0 1-0.1 1.3-0.4z" fill="inherit"/></g>
</svg>