<?xml version="1.0" encoding="UTF-8" standalone="no"?><svg xmlns="http://www.w3.org/2000/svg" xmlns:xlink="http://www.w3.org/1999/xlink" fill="#ffffff" height="128" preserveAspectRatio="xMidYMid meet" version="1" viewBox="-0.1 0.0 128.1 128.0" width="128.1" zoomAndPan="magnify"><g id="change1_1"><path d="M1.9,61.6c1.1,0.1,2.1-0.8,2.1-1.9c0-0.3,0-0.6,0.1-1c0.1-1.1-0.7-2.1-1.8-2.2c-1.1-0.1-2.1,0.7-2.2,1.8 c0,0.3-0.1,0.7-0.1,1C-0.1,60.5,0.8,61.5,1.9,61.6z"/></g><g id="change1_2"><path d="M5.2,43.8c1,0.4,2.2-0.1,2.6-1.2c0.1-0.3,0.2-0.6,0.4-0.9c0.4-1-0.1-2.2-1.1-2.6c-1-0.4-2.2,0.1-2.6,1.1 c-0.1,0.3-0.3,0.6-0.4,1C3.7,42.3,4.2,43.4,5.2,43.8z"/></g><g id="change1_3"><path d="M2.9,52.6c1.1,0.2,2.2-0.5,2.4-1.5c0.1-0.3,0.1-0.6,0.2-1C5.8,49,5.1,48,4,47.7c-1.1-0.3-2.2,0.4-2.4,1.5 c-0.1,0.3-0.2,0.7-0.2,1C1.2,51.3,1.8,52.3,2.9,52.6z"/></g><g id="change1_4"><path d="M13.5,27.8c0.9,0.7,2.1,0.5,2.8-0.4c0.2-0.3,0.4-0.5,0.6-0.8c0.7-0.9,0.5-2.1-0.3-2.8c-0.9-0.7-2.1-0.5-2.8,0.3 c-0.2,0.3-0.4,0.5-0.6,0.8C12.5,25.8,12.7,27.1,13.5,27.8z"/></g><g id="change1_5"><path d="M11.1,92.6c-0.5-1-1.7-1.3-2.7-0.8c-1,0.5-1.3,1.7-0.8,2.7c0.2,0.3,0.3,0.6,0.5,0.9c0.5,0.9,1.8,1.3,2.7,0.8 c1-0.5,1.3-1.8,0.8-2.7C11.4,93.2,11.3,92.9,11.1,92.6z"/></g><g id="change1_6"><path d="M11.3,31.1c-1-0.6-2.2-0.2-2.7,0.7c-0.2,0.3-0.3,0.6-0.5,0.9c-0.5,1-0.2,2.2,0.8,2.7c0.9,0.5,2.2,0.2,2.7-0.8 c0.2-0.3,0.3-0.6,0.5-0.8C12.6,32.9,12.2,31.7,11.3,31.1z"/></g><g id="change1_7"><path d="M15.9,100c-0.7-0.9-1.9-1.1-2.8-0.4c-0.9,0.7-1.1,1.9-0.4,2.8c0.2,0.3,0.4,0.6,0.6,0.8c0.7,0.8,2,1,2.8,0.4 c0.9-0.7,1-1.9,0.4-2.8C16.3,100.5,16.1,100.2,15.9,100z"/></g><g id="change1_8"><path d="M7.9,85.5c-0.1-0.3-0.2-0.6-0.3-0.9c-0.4-1-1.5-1.6-2.6-1.2c-1,0.4-1.6,1.5-1.2,2.6c0.1,0.3,0.2,0.7,0.4,1 c0.4,1,1.6,1.5,2.6,1.1C7.8,87.7,8.3,86.6,7.9,85.5z"/></g><g id="change1_9"><path d="M5.3,77.2c-0.1-0.3-0.1-0.6-0.2-0.9c-0.2-1.1-1.3-1.8-2.4-1.6C1.7,74.9,1,75.9,1.2,77c0.1,0.3,0.1,0.7,0.2,1 c0.2,1,1.3,1.7,2.4,1.5C4.9,79.3,5.6,78.2,5.3,77.2z"/></g><g id="change1_10"><path d="M21.6,106.6c-0.8-0.8-2-0.8-2.8,0c-0.8,0.8-0.8,2,0,2.8c0.2,0.2,0.5,0.5,0.7,0.7c0.8,0.7,2.1,0.7,2.8-0.1 c0.8-0.8,0.7-2.1-0.1-2.8C22.1,107,21.8,106.8,21.6,106.6z"/></g><g id="change1_11"><path d="M2.2,70.6c1.1-0.1,1.9-1,1.9-2.1c0-0.3,0-0.7-0.1-1c-0.1-1.1-1-1.9-2.1-1.9c-1.1,0.1-1.9,1-1.9,2.1c0,0.3,0,0.7,0.1,1 C0.1,69.8,1.1,70.7,2.2,70.6z"/></g><g id="change1_12"><path d="M52.5,5c0.4,0,0.9-0.1,1.3-0.2c1.1-0.2,1.8-1.2,1.6-2.3c-0.2-1.1-1.2-1.8-2.3-1.6c-0.3,0.1-0.7,0.1-1,0.2 c-1.1,0.2-1.8,1.2-1.6,2.3C50.7,4.3,51.6,5,52.5,5z"/></g><g id="change1_13"><path d="M61.5,4c0,0,0.7,0,1.1,0c1.1,0,2-0.9,2-2c0-1.1-0.9-2-2-2c0,0-0.7,0-1.1,0c-1.1,0-2,1-1.9,2.1C59.6,3.2,60.5,4,61.5,4z"/></g><g id="change1_14"><path d="M79,5.9c0.5,0.1,1,0.3,1.5,0.3c0.9,0,1.7-0.6,1.9-1.5c0.3-1.1-0.3-2.2-1.4-2.5c-0.3-0.1-0.7-0.2-1-0.3 c-1.1-0.3-2.2,0.4-2.4,1.4C77.3,4.5,77.9,5.6,79,5.9z"/></g><g id="change1_15"><path d="M118.3,38.4c0.1,0.3,0.3,0.6,0.4,0.9c0.4,1,1.7,1.4,2.7,1c1-0.5,1.5-1.6,1-2.6c-0.1-0.3-0.3-0.6-0.4-0.9 c-0.5-1-1.7-1.4-2.7-1C118.2,36.2,117.8,37.4,118.3,38.4z"/></g><g id="change1_16"><path d="M87.3,8.7c0.5,0.2,1.1,0.6,1.7,0.6c0.8,0,1.5-0.4,1.8-1.2c0.4-1,0-2.2-1-2.6c-0.3-0.1-0.6-0.3-1-0.4c-1-0.4-2.2,0-2.6,1.1 C85.8,7.1,86.3,8.3,87.3,8.7z"/></g><g id="change1_17"><path d="M114.5,31.6c0.6,0.9,1.9,1.2,2.8,0.6c0.9-0.6,1.2-1.8,0.6-2.8c-0.2-0.3-0.4-0.6-0.6-0.9c-0.6-0.9-1.9-1.2-2.8-0.6 c-0.9,0.6-1.2,1.9-0.6,2.8C114.1,31,114.3,31.3,114.5,31.6z"/></g><g id="change1_18"><path d="M35.5,10.9c0.7,0,1.2-0.4,1.8-0.7c1-0.5,1.4-1.7,0.9-2.7c-0.5-1-1.7-1.4-2.7-0.9c-0.3,0.2-0.6,0.3-0.9,0.5 c-1,0.5-1.4,1.7-0.9,2.7C34,10.5,34.7,10.9,35.5,10.9z"/></g><g id="change1_19"><path d="M125,52.8c-1.1,0.2-1.8,1.2-1.7,2.3c0,0.3,0.1,0.6,0.1,1c0.1,1.1,1.2,1.9,2.2,1.7c1.1-0.1,1.9-1.1,1.7-2.2 c0-0.3-0.1-0.7-0.1-1C127.1,53.4,126.1,52.6,125,52.8z"/></g><g id="change1_20"><path d="M27.8,15.6c0.8,0,1.3-0.5,2-0.9c0.9-0.6,1.1-1.9,0.5-2.8c-0.6-0.9-1.9-1.1-2.8-0.5c-0.3,0.2-0.6,0.4-0.8,0.6 c-0.9,0.6-1.1,1.9-0.5,2.8C26.5,15.3,27.1,15.6,27.8,15.6z"/></g><g id="change1_21"><path d="M20.8,21.4c0.9,0,1.5-0.6,2.1-1.2c0.8-0.8,0.8-2,0.1-2.8c-0.8-0.8-2-0.8-2.8-0.1c-0.3,0.2-0.5,0.5-0.8,0.7 c-0.4,0.4-0.6,1-0.6,1.5C18.9,20.6,19.8,21.4,20.8,21.4z"/></g><g id="change1_22"><path d="M121.4,46.5c0.1,0.3,0.2,0.6,0.3,0.9c0.3,1,1.4,1.7,2.5,1.4c1.1-0.3,1.7-1.4,1.4-2.5c-0.1-0.3-0.2-0.7-0.3-1 c-0.3-1.1-1.4-1.7-2.5-1.3C121.7,44.4,121.1,45.5,121.4,46.5z"/></g><g id="change1_23"><path d="M43.8,7.3c0.5,0,1.1-0.3,1.6-0.4c1.1-0.3,1.6-1.5,1.3-2.5c-0.3-1.1-1.5-1.6-2.5-1.3c-0.3,0.1-0.7,0.2-1,0.3 c-1,0.4-1.6,1.5-1.2,2.5C42.2,6.8,43,7.3,43.8,7.3z"/></g><g id="change1_24"><path d="M70.4,4.3c0.4,0,0.8,0.1,1.2,0.1c1,0,1.9-0.7,2-1.8c0.1-1.1-0.6-2.1-1.7-2.2c-0.3,0-0.7-0.1-1-0.1c-1.1-0.1-2.1,0.7-2.2,1.8 C68.5,3.2,69.3,4.2,70.4,4.3z"/></g><g id="change1_25"><path d="M111.5,21.2c-0.7-0.8-2-0.9-2.8-0.1c-0.8,0.7-0.9,2-0.1,2.8c0.2,0.2,0.4,0.5,0.6,0.7c0.7,0.8,2,0.9,2.8,0.2 c0.8-0.7,0.9-2,0.2-2.8C112,21.7,111.8,21.4,111.5,21.2z"/></g><g id="change1_26"><path d="M108.7,104.1c-0.2,0.2-0.4,0.5-0.7,0.7c-0.8,0.8-0.7,2.1,0.1,2.8c0.8,0.7,2.1,0.7,2.8-0.1c0.2-0.3,0.5-0.5,0.7-0.8 c0.7-0.8,0.7-2.1-0.2-2.8C110.7,103.2,109.4,103.2,108.7,104.1z"/></g><g id="change1_27"><path d="M104.8,14.7c-0.9-0.7-2.1-0.6-2.8,0.3c-0.7,0.9-0.6,2.1,0.3,2.8c0.3,0.2,0.5,0.4,0.7,0.6c0.8,0.7,2.1,0.6,2.8-0.2 c0.7-0.8,0.6-2.1-0.2-2.8C105.3,15.1,105.1,14.9,104.8,14.7z"/></g><g id="change1_28"><path d="M102.4,110.1c-0.2,0.2-0.5,0.4-0.8,0.6c-0.9,0.7-1,2-0.3,2.8c0.7,0.8,2,1,2.8,0.3c0.3-0.2,0.5-0.4,0.8-0.7 c0.8-0.7,1-2,0.3-2.8C104.5,109.6,103.2,109.4,102.4,110.1z"/></g><g id="change1_29"><path d="M98.1,9.8c-0.3-0.2-0.6-0.4-0.9-0.5C96.2,8.7,95,9,94.4,9.9c-0.6,0.9-0.3,2.2,0.7,2.7c0.3,0.2,0.6,0.3,0.8,0.5 c0.9,0.6,2.2,0.3,2.8-0.6C99.3,11.6,99,10.4,98.1,9.8z"/></g><g id="change1_30"><path d="M87.5,119.3c-0.3,0.1-0.6,0.3-0.9,0.4c-1,0.4-1.5,1.6-1.1,2.6c0.3,0.8,1.1,1.2,1.9,1.2c0.6,0,1.2-0.3,1.7-0.5 c1-0.4,1.5-1.6,1.1-2.6C89.7,119.3,88.5,118.8,87.5,119.3z"/></g><g id="change1_31"><path d="M126,61.8c-1.1,0-2,0.9-2,2c0,0,0,0.8,0,1.2c0,1.1,0.9,2,2,2c0,0,0,0,0,0c1.1,0,2-0.9,2-2c0-0.3,0-1.2,0-1.2 C128,62.7,127.1,61.8,126,61.8z"/></g><g id="change1_32"><path d="M125.6,71.1c-1.1-0.2-2.1,0.6-2.3,1.7c0,0.3-0.1,0.6-0.1,1c-0.2,1.1,0.6,2.1,1.7,2.3c1.1,0.2,2.1-0.6,2.3-1.7 c0.1-0.3,0.1-0.7,0.2-1C127.5,72.2,126.7,71.2,125.6,71.1z"/></g><g id="change1_33"><path d="M124,80c-1.1-0.3-2.2,0.3-2.5,1.3c-0.1,0.3-0.2,0.6-0.3,0.9c-0.3,1.1,0.2,2.2,1.3,2.5c1,0.3,2.2-0.3,2.5-1.3 c0.1-0.3,0.2-0.7,0.3-1C125.6,81.4,125,80.3,124,80z"/></g><g id="change1_34"><path d="M121,88.5c-1-0.5-2.2,0-2.7,1c-0.1,0.3-0.3,0.6-0.4,0.9c-0.5,1-0.1,2.2,0.9,2.7c1,0.5,2.2,0.1,2.7-0.9 c0.2-0.3,0.3-0.6,0.5-0.9C122.4,90.2,122,89,121,88.5z"/></g><g id="change1_35"><path d="M116.8,96.6c-0.9-0.6-2.2-0.4-2.8,0.6c-0.2,0.3-0.4,0.5-0.5,0.8c-0.6,0.9-0.4,2.2,0.5,2.8c0.9,0.6,2.2,0.4,2.8-0.5 c0.2-0.3,0.4-0.6,0.6-0.9C118,98.4,117.7,97.2,116.8,96.6z"/></g><g id="change1_36"><path d="M95.2,115.2c-0.3,0.2-0.5,0.3-0.8,0.5c-1,0.6-1.3,1.8-0.7,2.7c0.5,0.9,1.8,1.3,2.7,0.7c0.3-0.2,0.6-0.4,0.9-0.5 c0.9-0.6,1.2-1.8,0.7-2.8C97.4,115,96.2,114.7,95.2,115.2z"/></g><g id="change1_37"><path d="M61.8,124c-0.3,0-0.7,0-1,0c-1.1-0.1-2,0.8-2.1,1.9c-0.1,1.1,0.8,2,1.9,2.1c0.3,0,1.1,0,1.1,0c1.1,0,2-0.9,2-1.9 C63.8,125,62.9,124,61.8,124z"/></g><g id="change1_38"><path d="M29,112.9c-0.3-0.2-0.5-0.4-0.8-0.6c-0.9-0.7-2.1-0.5-2.8,0.4c-0.7,0.9-0.5,2.1,0.4,2.8c0.3,0.2,0.6,0.4,0.8,0.6 c0.9,0.6,2.2,0.4,2.8-0.5C30.2,114.8,29.9,113.5,29,112.9z"/></g><g id="change1_39"><path d="M53.1,123.1c-0.3-0.1-0.6-0.1-1-0.2c-1.1-0.2-2.1,0.5-2.4,1.6c-0.2,1.1,0.5,2.1,1.6,2.4c0.7,0.1,1.5,0.4,2.2,0.1 c0.6-0.3,1-0.8,1.2-1.5C54.9,124.3,54.2,123.3,53.1,123.1z"/></g><g id="change1_40"><path d="M44.6,120.9c-0.3-0.1-0.6-0.2-0.9-0.3c-1-0.4-2.2,0.2-2.6,1.2c-0.4,1,0.2,2.2,1.2,2.6c0.5,0.2,1.1,0.5,1.6,0.5 c0.8,0,1.6-0.5,1.9-1.4C46.2,122.3,45.7,121.2,44.6,120.9z"/></g><g id="change1_41"><path d="M36.5,117.4c-0.3-0.1-0.6-0.3-0.9-0.5c-1-0.5-2.2-0.2-2.7,0.8s-0.2,2.2,0.8,2.7c0.3,0.2,0.6,0.3,0.9,0.5 c1,0.5,2.2,0.1,2.7-0.9C37.9,119.1,37.5,117.9,36.5,117.4z"/></g><g id="change1_42"><path d="M79.2,122.1c-0.3,0.1-0.6,0.2-0.9,0.2c-1.1,0.3-1.7,1.3-1.5,2.4c0.2,0.9,1,1.5,1.9,1.5c0.5,0,1-0.2,1.5-0.3 c1.1-0.3,1.7-1.4,1.4-2.4C81.3,122.5,80.3,121.8,79.2,122.1z"/></g><g id="change1_43"><path d="M70.6,123.7c-0.3,0-0.6,0.1-1,0.1c-1.1,0.1-1.9,1.1-1.8,2.2c0.1,1,1,1.8,2,1.8c0.1,0,0.9-0.1,1.2-0.1 c1.1-0.1,1.9-1.1,1.8-2.2C72.7,124.4,71.7,123.6,70.6,123.7z"/></g><g id="change1_44"><path d="M87,75c0-1.1-0.9-2-2-2H43c-1.1,0-2,0.9-2,2s0.9,2,2,2h42C86.1,77,87,76.1,87,75z"/></g><g id="change1_45"><path d="M75.4,81H43c-1.1,0-2,0.9-2,2s0.9,2,2,2h28.3C72.4,83.4,73.8,82.1,75.4,81z"/></g><g id="change1_46"><path d="M98,95c0-7.2-5.8-13-13-13s-13,5.8-13,13s5.8,13,13,13S98,102.2,98,95z M85,104c-5,0-9-4-9-9s4-9,9-9s9,4,9,9S90,104,85,104 z"/></g><g id="change1_47"><path d="M87.9,92.4l-4.3,3l-1-1.2c-0.7-0.8-2-1-2.8-0.2c-0.8,0.7-0.9,2-0.2,2.8c0,0,2.2,2.6,2.2,2.6c0.6,0.8,1.8,0.9,2.7,0.4l5.8-4 c0.9-0.6,1.1-1.9,0.5-2.8C90,92,88.8,91.7,87.9,92.4z"/></g><g id="change1_48"><path d="M85,57H73.7c-0.5,1.4-1.2,2.7-2,4H85c1.1,0,2-0.9,2-2S86.1,57,85,57z"/></g><g id="change1_49"><path d="M68.8,100H39c-1.1,0-2-0.9-2-2V78.6l-4,4V98c0,3.3,2.7,6,6,6h31.6C69.8,102.8,69.2,101.4,68.8,100z"/></g><g id="change1_50"><path d="M37,31.6V28c0-1.1,0.9-2,2-2h50c1.1,0,2,0.9,2,2v51.1c1.4,0.5,2.8,1.3,4,2.2V28c0-3.3-2.7-6-6-6H39c-3.3,0-6,2.7-6,6v8.2 C34.1,34.5,35.5,32.9,37,31.6z"/></g><g id="change1_51"><path d="M45,50c1.1,0,2.1-1,2-2.1c-0.1-1.7,1.1-3.5,2.6-4c1.1-0.3,1.7-1.4,1.3-2.5c-0.3-1.1-1.4-1.7-2.5-1.3c-3.2,1-5.6,4.5-5.4,8 C43.1,49.2,44,50,45,50z"/></g><g id="change1_52"><path d="M39.4,68.6c0-0.9-0.3-1.8-0.8-2.6l2.1-2.1c3.2,2.5,7.2,3.9,11.5,3.9c10.5,0,19-8.5,19-19s-8.5-19-19-19s-19,8.5-19,19 c0,4.7,1.7,9,4.6,12.3l-2,2c-1.9-1.3-4.6-1.1-6.2,0.6L14.8,78.4c-1.9,1.9-1.9,5,0,7c0,0,1.4,1.4,1.4,1.4c1.9,1.9,5.1,1.9,7,0 l14.7-14.7C38.9,71.1,39.4,69.9,39.4,68.6z M52.2,33.8c8.3,0,15,6.7,15,15s-6.7,15-15,15s-15-6.7-15-15S44,33.8,52.2,33.8z M35.1,69.2L20.4,84c-0.4,0.4-0.9,0.4-1.3,0l-1.4-1.4c-0.4-0.4-0.4-0.9,0-1.3c0,0,14.7-14.7,14.7-14.7c0.3-0.3,0.9-0.4,1.3,0 l1.4,1.4C35.5,68.3,35.5,68.9,35.1,69.2z"/></g><g id="change1_53"><path d="M41,91c0,1.1,0.9,2,2,2h25.1c0.2-1.4,0.5-2.7,1-4H43C41.9,89,41,89.9,41,91z"/></g><g id="change1_54"><path d="M85,65H68.5c-1.6,1.6-3.4,2.9-5.4,4H85c1.1,0,2-0.9,2-2S86.1,65,85,65z"/></g><g id="change1_55"><path d="M85,41H73.9c0.5,1.3,0.8,2.6,1,4H85c1.1,0,2-0.9,2-2S86.1,41,85,41z"/></g><g id="change1_56"><path d="M85,33H69c1.1,1.2,2.2,2.6,3,4h13c1.1,0,2-0.9,2-2S86.1,33,85,33z"/></g><g id="change1_57"><path d="M85,49h-9.8c0,1.4-0.1,2.7-0.4,4H85c1.1,0,2-0.9,2-2S86.1,49,85,49z"/></g></svg>