<?xml version="1.0" encoding="UTF-8" standalone="no"?><svg xmlns="http://www.w3.org/2000/svg" xmlns:xlink="http://www.w3.org/1999/xlink" fill="#ffffff" height="62" preserveAspectRatio="xMidYMid meet" version="1" viewBox="5.0 14.1 80.2 62.0" width="80.2" zoomAndPan="magnify"><g id="change1_1"><path clip-rule="evenodd" d="M9.045,14.065c-2.223,0-4.016,1.797-4.016,4.021v24.557 c0,2.229,1.793,4.017,4.016,4.017H23.76v2.03c-2.234,0-4.063,2.265-4.063,3.932v1.366c0,0.405,0.229,0.598,0.588,0.598H34.52 c0.365,0,0.588-0.193,0.588-0.598v-1.366c0-1.667-1.822-3.932-4.057-3.932v-2.03h3.297c-0.125-0.459-0.229-0.934-0.303-1.429 c-0.301-1.983-0.176-3.916,0.318-5.635H11.332c-1.604,0-1.838-0.99-1.838-2.218V19.655c0-1.23,0.104-2.219,1.707-2.219h32.402 c1.604,0,1.707,0.989,1.707,2.219v2.338c0,3.058,4.465,1.244,4.465-1.813v-2.094c0-2.224-1.787-4.021-4.016-4.021 C33.525,14.065,21.285,14.065,9.045,14.065z" fill="inherit" fill-rule="evenodd"/></g><g id="change1_2"><path d="M60.635,27.831c-7.146,0-12.906,5.568-12.906,12.907s5.76,12.901,12.906,12.901c7.15,0,12.9-5.563,12.9-12.901 C73.535,33.404,67.785,27.831,60.635,27.831z" fill="inherit"/></g><g id="change1_3"><path d="M52.697,55.571c-9.35,2.13-13.859,5.25-15.688,14.016c-0.5,2.364,0.275,3.057,1.238,3.385 c6.641,2.246,17.563,3.047,22.387,3.047c4.818,0,15.744-0.801,22.385-3.047c0.965-0.328,1.74-1.021,1.24-3.385 c-1.828-8.765-6.338-11.885-15.693-14.016l-7.082,1.625c-0.668,0.156-1.037,0.156-1.699,0L52.697,55.571z" fill="inherit"/></g><g id="change1_4"><path clip-rule="evenodd" d="M60.635,22.014c-3.824,0-7.678,0.917-11.012,3.141 c-3.744,2.5-6.354,6.197-7.563,10.322c-0.332-0.041-0.729-0.021-1.203,0.109c-1.766,0.505-3.098,1.948-3.691,3.224 c-0.777,1.661-1.1,3.854-0.756,6.125c0.338,2.26,1.297,4.129,2.49,5.281c1.197,1.156,2.547,1.536,3.895,1.25 c2-0.427,2.996-0.746,2.709-2.604l-1.354-9.041c0.275-4.891,2.807-9.495,7.041-12.324c2.859-1.911,6.168-2.667,9.443-2.667 c3.271,0,6.578,0.756,9.443,2.667c4.229,2.83,6.76,7.433,7.035,12.324l-1.354,9.041c-0.281,1.859,0.713,2.177,2.713,2.604 c1.344,0.286,2.693-0.094,3.891-1.25c1.199-1.152,2.152-3.021,2.49-5.281c0.35-2.272,0.021-4.464-0.756-6.125 c-0.594-1.276-1.922-2.719-3.688-3.224c-0.473-0.131-0.869-0.15-1.203-0.109c-1.207-4.125-3.816-7.822-7.566-10.322 C68.313,22.93,64.453,22.014,60.635,22.014z" fill="inherit" fill-rule="evenodd"/></g><g id="change1_5"><path d="M17.561,31.888h1.225c0.213,0,0.307,0.063,0.307,0.183v2.26c0,0.125-0.094,0.177-0.307,0.177h-1.225 c-0.213,0-0.307-0.052-0.307-0.177v-2.26C17.254,31.95,17.348,31.888,17.561,31.888z M17.561,27.201h1.225 c0.213,0,0.307,0.057,0.307,0.183v2.26c0,0.126-0.094,0.178-0.307,0.178h-1.225c-0.213,0-0.307-0.052-0.307-0.178v-2.26 C17.254,27.258,17.348,27.201,17.561,27.201z M17.561,22.514h1.225c0.213,0,0.307,0.057,0.307,0.177v2.265 c0,0.121-0.094,0.178-0.307,0.178h-1.225c-0.213,0-0.307-0.057-0.307-0.178V22.69C17.254,22.571,17.348,22.514,17.561,22.514z M17.51,20.576c-1.109,0-1.621,0.536-1.621,1.708v12.459c0,1.167,0.512,1.708,1.621,1.708h7.775c0,0-0.594-1.942-1.994-1.942h-2.277 c-0.453,0-0.66-0.208-0.66-0.672v-3.859c0-0.463,0.207-0.677,0.66-0.677h3.141c0.949,0,1.521-0.932,1.521-1.573h-4.662 c-0.453,0-0.66-0.213-0.66-0.676v-3.86c0-0.464,0.207-0.677,0.66-0.677h3.059c0.807,0,1.285-1.214,1.285-1.938H17.51z" fill="inherit"/></g><g id="change1_6"><path clip-rule="evenodd" d="M27.229,20.565c-0.459,0.621-0.787,2.975,0.385,4.552l2.359,3.178l1.494-2.017 L27.229,20.565z" fill="inherit" fill-rule="evenodd"/></g><g id="change1_7"><path clip-rule="evenodd" d="M36.842,20.565l-6.984,9.412c-0.041-0.057-0.082-0.115-0.125-0.172 c-0.5-0.677-1.182-1.057-1.895-1.057c-0.715,0-1.396,0.38-1.896,1.057c-1.047,1.412-1.047,3.697,0,5.104 c0.5,0.677,1.182,1.063,1.896,1.063c0.713,0,1.395-0.385,1.895-1.063c0.199-0.26,0.359-0.563,0.49-0.896l0.563-1.261l1.25-1.682 l1.25,1.682l0.563,1.261c0.131,0.333,0.291,0.635,0.49,0.896c0.504,0.677,1.188,1.063,1.895,1.063c0.715,0,1.396-0.385,1.902-1.063 c1.047-1.407,1.047-3.692,0-5.104c-0.506-0.683-1.188-1.057-1.902-1.057c-0.707,0-1.391,0.374-1.895,1.057 c-0.043,0.057-0.084,0.115-0.121,0.172l-0.682-0.922l2.922-3.938C37.629,23.54,37.307,21.186,36.842,20.565z M27.857,30.555 c0.35,0.005,0.678,0.198,0.928,0.526c0.521,0.708,0.521,1.849,0,2.552c-0.521,0.703-1.369,0.703-1.896,0 c-0.52-0.703-0.52-1.844,0-2.552C27.15,30.737,27.494,30.551,27.857,30.555z M36.213,30.555c0.363-0.004,0.713,0.183,0.969,0.526 c0.52,0.708,0.52,1.849,0,2.552c-0.521,0.703-1.371,0.703-1.896,0c-0.521-0.703-0.521-1.844,0-2.552 C35.535,30.753,35.869,30.56,36.213,30.555z" fill="inherit" fill-rule="evenodd"/></g></svg>